<svg width="3144" height="729" viewBox="0 0 3144 729" fill="none" xmlns="http://www.w3.org/2000/svg">
<rect width="3144" height="729" rx="141" fill="#1E1E1E"/>
<path d="M1158.41 187.96V499H1107.86V360.544H951.696V499H900.936V187.96H951.696V324.04H1107.86V187.96H1158.41ZM1268.9 278.68V499H1222.46V278.68H1268.9ZM1276.67 212.152C1276.67 216.328 1275.81 220.288 1274.08 224.032C1272.5 227.776 1270.27 231.088 1267.39 233.968C1264.51 236.704 1261.12 238.936 1257.23 240.664C1253.49 242.248 1249.46 243.04 1245.14 243.04C1240.96 243.04 1237 242.248 1233.26 240.664C1229.66 238.936 1226.49 236.704 1223.75 233.968C1221.02 231.088 1218.79 227.776 1217.06 224.032C1215.47 220.288 1214.68 216.328 1214.68 212.152C1214.68 207.832 1215.47 203.8 1217.06 200.056C1218.79 196.312 1221.02 193.072 1223.75 190.336C1226.49 187.456 1229.66 185.224 1233.26 183.64C1237 181.912 1240.96 181.048 1245.14 181.048C1249.46 181.048 1253.49 181.912 1257.23 183.64C1261.12 185.224 1264.51 187.456 1267.39 190.336C1270.27 193.072 1272.5 196.312 1274.08 200.056C1275.81 203.8 1276.67 207.832 1276.67 212.152ZM1521.22 278.68L1432.66 499H1390.75L1302.19 278.68H1340.43C1344.03 278.68 1346.98 279.616 1349.28 281.488C1351.73 283.216 1353.31 285.304 1354.03 287.752L1402.85 416.056C1404.87 422.104 1406.67 428.08 1408.25 433.984C1409.83 439.888 1411.2 445.864 1412.35 451.912C1413.51 445.864 1414.87 439.96 1416.46 434.2C1418.19 428.296 1420.06 422.248 1422.07 416.056L1471.75 287.752C1472.62 285.16 1474.2 283 1476.51 281.272C1478.81 279.544 1481.62 278.68 1484.93 278.68H1521.22ZM1691.13 364C1691.13 356.224 1689.98 349.024 1687.67 342.4C1685.51 335.632 1682.27 329.8 1677.95 324.904C1673.63 319.864 1668.23 315.976 1661.75 313.24C1655.42 310.36 1648.07 308.92 1639.72 308.92C1622.87 308.92 1609.62 313.744 1599.98 323.392C1590.33 333.04 1584.21 346.576 1581.62 364H1691.13ZM1580.32 392.512C1580.9 405.04 1582.84 415.912 1586.15 425.128C1589.46 434.2 1593.86 441.76 1599.33 447.808C1604.94 453.856 1611.57 458.392 1619.2 461.416C1626.98 464.296 1635.62 465.736 1645.12 465.736C1654.19 465.736 1662.04 464.728 1668.66 462.712C1675.29 460.552 1681.05 458.248 1685.94 455.8C1690.84 453.208 1695.02 450.904 1698.47 448.888C1701.93 446.728 1705.1 445.648 1707.98 445.648C1711.72 445.648 1714.6 447.088 1716.62 449.968L1729.79 467.032C1724.32 473.512 1718.13 478.984 1711.22 483.448C1704.3 487.912 1696.96 491.584 1689.18 494.464C1681.41 497.2 1673.42 499.144 1665.21 500.296C1657 501.592 1649.01 502.24 1641.23 502.24C1625.97 502.24 1611.78 499.72 1598.68 494.68C1585.72 489.496 1574.42 481.936 1564.77 472C1555.26 462.064 1547.78 449.752 1542.3 435.064C1536.98 420.376 1534.31 403.456 1534.31 384.304C1534.31 369.04 1536.69 354.784 1541.44 341.536C1546.34 328.288 1553.25 316.768 1562.18 306.976C1571.25 297.184 1582.19 289.48 1595.01 283.864C1607.97 278.104 1622.58 275.224 1638.86 275.224C1652.39 275.224 1664.92 277.456 1676.44 281.92C1687.96 286.24 1697.9 292.648 1706.25 301.144C1714.6 309.64 1721.08 320.08 1725.69 332.464C1730.44 344.704 1732.82 358.672 1732.82 374.368C1732.82 381.568 1732.02 386.392 1730.44 388.84C1728.86 391.288 1725.98 392.512 1721.8 392.512H1580.32ZM1907.67 318.64C1906.52 320.656 1905.22 322.096 1903.78 322.96C1902.34 323.824 1900.54 324.256 1898.38 324.256C1895.93 324.256 1893.27 323.536 1890.39 322.096C1887.51 320.512 1884.12 318.784 1880.24 316.912C1876.35 315.04 1871.74 313.384 1866.41 311.944C1861.23 310.36 1855.11 309.568 1848.05 309.568C1842.29 309.568 1837.04 310.288 1832.28 311.728C1827.68 313.024 1823.72 314.968 1820.4 317.56C1817.24 320.008 1814.79 322.96 1813.06 326.416C1811.33 329.728 1810.47 333.328 1810.47 337.216C1810.47 342.4 1812.05 346.72 1815.22 350.176C1818.39 353.632 1822.56 356.656 1827.75 359.248C1832.93 361.696 1838.84 363.928 1845.46 365.944C1852.08 367.96 1858.85 370.12 1865.76 372.424C1872.68 374.728 1879.44 377.392 1886.07 380.416C1892.69 383.44 1898.6 387.184 1903.78 391.648C1908.96 395.968 1913.14 401.296 1916.31 407.632C1919.48 413.824 1921.06 421.384 1921.06 430.312C1921.06 440.68 1919.19 450.256 1915.44 459.04C1911.7 467.824 1906.23 475.456 1899.03 481.936C1891.83 488.416 1882.83 493.456 1872.03 497.056C1861.37 500.656 1849.13 502.456 1835.31 502.456C1827.68 502.456 1820.26 501.736 1813.06 500.296C1806 499 1799.24 497.2 1792.76 494.896C1786.42 492.448 1780.44 489.568 1774.83 486.256C1769.36 482.944 1764.46 479.344 1760.14 475.456L1770.94 457.744C1772.24 455.584 1773.82 453.928 1775.69 452.776C1777.71 451.48 1780.16 450.832 1783.04 450.832C1786.06 450.832 1789.01 451.84 1791.89 453.856C1794.92 455.728 1798.37 457.816 1802.26 460.12C1806.29 462.424 1811.12 464.584 1816.73 466.6C1822.35 468.472 1829.33 469.408 1837.68 469.408C1844.6 469.408 1850.57 468.616 1855.61 467.032C1860.65 465.304 1864.83 463 1868.14 460.12C1871.45 457.24 1873.9 454 1875.48 450.4C1877.07 446.656 1877.86 442.696 1877.86 438.52C1877.86 432.904 1876.28 428.296 1873.11 424.696C1869.94 421.096 1865.69 418 1860.36 415.408C1855.18 412.816 1849.2 410.512 1842.44 408.496C1835.81 406.48 1829.04 404.32 1822.13 402.016C1815.22 399.712 1808.38 397.048 1801.61 394.024C1794.99 391 1789.01 387.184 1783.68 382.576C1778.5 377.824 1774.32 372.136 1771.16 365.512C1767.99 358.744 1766.4 350.536 1766.4 340.888C1766.4 332.104 1768.13 323.752 1771.59 315.832C1775.19 307.912 1780.37 300.928 1787.14 294.88C1794.05 288.832 1802.48 284.08 1812.41 280.624C1822.49 277.024 1834.08 275.224 1847.19 275.224C1862.02 275.224 1875.48 277.6 1887.58 282.352C1899.68 287.104 1909.83 293.584 1918.04 301.792L1907.67 318.64ZM2013.09 278.68V499H1966.65V278.68H2013.09ZM2020.86 212.152C2020.86 216.328 2020 220.288 2018.27 224.032C2016.69 227.776 2014.45 231.088 2011.57 233.968C2008.69 236.704 2005.31 238.936 2001.42 240.664C1997.68 242.248 1993.65 243.04 1989.33 243.04C1985.15 243.04 1981.19 242.248 1977.45 240.664C1973.85 238.936 1970.68 236.704 1967.94 233.968C1965.21 231.088 1962.97 227.776 1961.25 224.032C1959.66 220.288 1958.87 216.328 1958.87 212.152C1958.87 207.832 1959.66 203.8 1961.25 200.056C1962.97 196.312 1965.21 193.072 1967.94 190.336C1970.68 187.456 1973.85 185.224 1977.45 183.64C1981.19 181.912 1985.15 181.048 1989.33 181.048C1993.65 181.048 1997.68 181.912 2001.42 183.64C2005.31 185.224 2008.69 187.456 2011.57 190.336C2014.45 193.072 2016.69 196.312 2018.27 200.056C2020 203.8 2020.86 207.832 2020.86 212.152ZM2150.06 386.896C2164.46 386.896 2175.26 383.224 2182.46 375.88C2189.66 368.536 2193.26 358.96 2193.26 347.152C2193.26 335.056 2189.66 325.48 2182.46 318.424C2175.26 311.368 2164.46 307.84 2150.06 307.84C2135.8 307.84 2125 311.368 2117.66 318.424C2110.46 325.48 2106.86 335.056 2106.86 347.152C2106.86 352.912 2107.8 358.24 2109.67 363.136C2111.54 368.032 2114.28 372.28 2117.88 375.88C2121.48 379.336 2125.94 382.072 2131.27 384.088C2136.74 385.96 2143 386.896 2150.06 386.896ZM2214.64 509.8C2214.64 504.904 2213.2 501.016 2210.32 498.136C2207.59 495.112 2203.84 492.808 2199.09 491.224C2194.34 489.496 2188.8 488.272 2182.46 487.552C2176.12 486.688 2169.36 486.112 2162.16 485.824C2155.1 485.392 2147.83 485.032 2140.34 484.744C2133 484.312 2125.87 483.592 2118.96 482.584C2112.04 486.184 2106.36 490.504 2101.89 495.544C2097.57 500.584 2095.41 506.416 2095.41 513.04C2095.41 517.36 2096.49 521.392 2098.65 525.136C2100.96 528.88 2104.41 532.12 2109.02 534.856C2113.77 537.592 2119.75 539.752 2126.95 541.336C2134.29 542.92 2143.08 543.712 2153.3 543.712C2173.75 543.712 2189.08 540.544 2199.31 534.208C2209.53 527.872 2214.64 519.736 2214.64 509.8ZM2261.3 286.672V303.952C2261.3 309.712 2257.84 313.24 2250.93 314.536L2228.9 318.208C2232.64 326.56 2234.52 335.848 2234.52 346.072C2234.52 356.872 2232.36 366.664 2228.04 375.448C2223.86 384.232 2218.03 391.72 2210.54 397.912C2203.05 404.104 2194.12 408.856 2183.76 412.168C2173.39 415.48 2162.16 417.136 2150.06 417.136C2145.45 417.136 2140.92 416.92 2136.45 416.488C2132.13 415.912 2127.88 415.192 2123.71 414.328C2119.53 416.776 2116.44 419.368 2114.42 422.104C2112.4 424.84 2111.4 427.648 2111.4 430.528C2111.4 435.28 2113.48 438.808 2117.66 441.112C2121.84 443.416 2127.31 445.072 2134.08 446.08C2140.99 447.088 2148.84 447.736 2157.62 448.024C2166.4 448.312 2175.33 448.816 2184.4 449.536C2193.48 450.256 2202.4 451.48 2211.19 453.208C2219.97 454.792 2227.75 457.528 2234.52 461.416C2241.43 465.16 2246.97 470.272 2251.15 476.752C2255.32 483.232 2257.41 491.656 2257.41 502.024C2257.41 511.528 2255.04 520.816 2250.28 529.888C2245.53 538.96 2238.62 547.024 2229.55 554.08C2220.62 561.136 2209.68 566.752 2196.72 570.928C2183.76 575.248 2169 577.408 2152.44 577.408C2136.02 577.408 2121.69 575.824 2109.45 572.656C2097.36 569.488 2087.2 565.168 2079 559.696C2070.93 554.368 2064.88 548.176 2060.85 541.12C2056.96 534.064 2055.02 526.72 2055.02 519.088C2055.02 508.72 2058.26 499.864 2064.74 492.52C2071.36 485.176 2080.29 479.416 2091.52 475.24C2085.48 472.36 2080.58 468.4 2076.84 463.36C2073.24 458.32 2071.44 451.696 2071.44 443.488C2071.44 437.008 2073.81 430.24 2078.56 423.184C2083.32 416.128 2090.44 410.152 2099.95 405.256C2089 399.208 2080.36 391.216 2074.03 381.28C2067.69 371.2 2064.52 359.464 2064.52 346.072C2064.52 335.128 2066.61 325.264 2070.79 316.48C2075.11 307.696 2081.08 300.208 2088.72 294.016C2096.35 287.824 2105.35 283.072 2115.72 279.76C2126.23 276.448 2137.68 274.792 2150.06 274.792C2169.07 274.792 2185.63 278.752 2199.74 286.672H2261.3ZM2341.4 307.84C2346.15 302.944 2351.05 298.552 2356.09 294.664C2361.27 290.632 2366.74 287.176 2372.5 284.296C2378.26 281.416 2384.38 279.184 2390.86 277.6C2397.34 276.016 2404.4 275.224 2412.03 275.224C2424.13 275.224 2434.71 277.24 2443.78 281.272C2453 285.304 2460.7 290.992 2466.9 298.336C2473.23 305.68 2477.98 314.536 2481.15 324.904C2484.32 335.128 2485.9 346.432 2485.9 358.816V499H2439.68V358.816C2439.68 343.984 2436.22 332.464 2429.31 324.256C2422.54 316.048 2412.18 311.944 2398.21 311.944C2387.84 311.944 2378.19 314.32 2369.26 319.072C2360.48 323.824 2352.2 330.304 2344.42 338.512V499H2297.98V278.68H2326.06C2332.4 278.68 2336.43 281.632 2338.16 287.536L2341.4 307.84ZM2684.64 364C2684.64 356.224 2683.49 349.024 2681.19 342.4C2679.03 335.632 2675.79 329.8 2671.47 324.904C2667.15 319.864 2661.75 315.976 2655.27 313.24C2648.93 310.36 2641.59 308.92 2633.24 308.92C2616.39 308.92 2603.14 313.744 2593.49 323.392C2583.84 333.04 2577.72 346.576 2575.13 364H2684.64ZM2573.84 392.512C2574.41 405.04 2576.36 415.912 2579.67 425.128C2582.98 434.2 2587.37 441.76 2592.84 447.808C2598.46 453.856 2605.08 458.392 2612.72 461.416C2620.49 464.296 2629.13 465.736 2638.64 465.736C2647.71 465.736 2655.56 464.728 2662.18 462.712C2668.8 460.552 2674.56 458.248 2679.46 455.8C2684.36 453.208 2688.53 450.904 2691.99 448.888C2695.44 446.728 2698.61 445.648 2701.49 445.648C2705.24 445.648 2708.12 447.088 2710.13 449.968L2723.31 467.032C2717.84 473.512 2711.64 478.984 2704.73 483.448C2697.82 487.912 2690.48 491.584 2682.7 494.464C2674.92 497.2 2666.93 499.144 2658.72 500.296C2650.52 501.592 2642.52 502.24 2634.75 502.24C2619.48 502.24 2605.3 499.72 2592.2 494.68C2579.24 489.496 2567.93 481.936 2558.28 472C2548.78 462.064 2541.29 449.752 2535.82 435.064C2530.49 420.376 2527.83 403.456 2527.83 384.304C2527.83 369.04 2530.2 354.784 2534.96 341.536C2539.85 328.288 2546.76 316.768 2555.69 306.976C2564.76 297.184 2575.71 289.48 2588.52 283.864C2601.48 278.104 2616.1 275.224 2632.37 275.224C2645.91 275.224 2658.44 277.456 2669.96 281.92C2681.48 286.24 2691.41 292.648 2699.76 301.144C2708.12 309.64 2714.6 320.08 2719.2 332.464C2723.96 344.704 2726.33 358.672 2726.33 374.368C2726.33 381.568 2725.54 386.392 2723.96 388.84C2722.37 391.288 2719.49 392.512 2715.32 392.512H2573.84ZM2813.49 319.504C2820.4 305.536 2828.75 294.592 2838.54 286.672C2848.34 278.608 2860.07 274.576 2873.75 274.576C2878.5 274.576 2882.97 275.152 2887.14 276.304C2891.32 277.312 2895.06 278.896 2898.38 281.056L2895.14 316.048C2894.56 318.496 2893.62 320.224 2892.33 321.232C2891.18 322.096 2889.59 322.528 2887.58 322.528C2885.42 322.528 2882.32 322.168 2878.29 321.448C2874.26 320.584 2870.01 320.152 2865.54 320.152C2859.06 320.152 2853.3 321.088 2848.26 322.96C2843.37 324.832 2838.9 327.568 2834.87 331.168C2830.98 334.768 2827.53 339.16 2824.5 344.344C2821.48 349.528 2818.67 355.432 2816.08 362.056V499H2769.64V278.68H2796.64C2801.54 278.68 2804.92 279.616 2806.79 281.488C2808.66 283.216 2809.96 286.312 2810.68 290.776L2813.49 319.504Z" fill="white"/>
<path fill-rule="evenodd" clip-rule="evenodd" d="M591.146 398.478V308.938H214V138H635V223.469H591.146V180.734H257.854V266.204H635V405.304C634.292 473.249 595.265 528.984 530.718 573.328C507.92 588.99 483.465 602.111 458.95 612.802C450.309 616.571 442.252 619.774 434.986 622.421C430.507 624.053 426.927 625.254 425.331 625.74L424.477 626L423.624 625.736C421.836 625.184 418.451 624.048 413.985 622.42C406.718 619.771 398.664 616.568 390.027 612.8C365.515 602.107 341.065 588.988 318.271 573.326C254.342 529.401 215.454 474.303 214.04 407.227H214V351.672H257.854V398.478C257.854 449.996 285.491 493.091 332.9 528.323C350.407 541.333 369.685 552.545 389.671 562.018C402.922 568.297 414.852 573.066 424.506 576.386C434.149 573.07 446.086 568.3 459.337 562.02C479.322 552.548 498.6 541.336 516.106 528.325C563.514 493.092 591.146 449.996 591.146 398.478Z" fill="#C4383B"/>
</svg>
